<?xml version="1.0" encoding="UTF-8" standalone="no"?>
<svg
   xmlns:dc="http://purl.org/dc/elements/1.1/"
   xmlns:cc="http://creativecommons.org/ns#"
   xmlns:rdf="http://www.w3.org/1999/02/22-rdf-syntax-ns#"
   xmlns:svg="http://www.w3.org/2000/svg"
   xmlns="http://www.w3.org/2000/svg"
   xmlns:sodipodi="http://sodipodi.sourceforge.net/DTD/sodipodi-0.dtd"
   xmlns:inkscape="http://www.inkscape.org/namespaces/inkscape"
   version="1.1"
   id="Layer_1"
   x="0px"
   y="0px"
   width="582"
   height="408"
   viewBox="0 0 582.0000000000003 407.9999999999992"
   enable-background="new 0 0 578 462"
   xml:space="preserve"
   inkscape:version="0.91 r13725"
   sodipodi:docname="Crown-1.svg"><metadata
     id="metadata8"><rdf:RDF><cc:Work
         rdf:about=""><dc:format>image/svg+xml</dc:format><dc:type
           rdf:resource="http://purl.org/dc/dcmitype/StillImage" /><dc:date>2016</dc:date><dc:creator><cc:Agent><dc:title>Lazur</dc:title></cc:Agent></dc:creator><dc:description>Original raster images of this series were uploaded by NicholasJudy456 to openclipart embedded in svg-s (416 in total).  This is one of the refixes upon request by the original author.</dc:description><dc:contributor><cc:Agent><dc:title /></cc:Agent></dc:contributor><dc:title></dc:title></cc:Work></rdf:RDF></metadata><defs
     id="defs6" /><sodipodi:namedview
     pagecolor="#ffffff"
     bordercolor="#666666"
     borderopacity="1"
     objecttolerance="10"
     gridtolerance="10"
     guidetolerance="10"
     inkscape:pageopacity="0"
     inkscape:pageshadow="2"
     inkscape:window-width="1366"
     inkscape:window-height="705"
     id="namedview4"
     showgrid="false"
     borderlayer="true"
     inkscape:showpageshadow="false"
     inkscape:zoom="1.360294117647059"
     inkscape:cx="291"
     inkscape:cy="204"
     inkscape:window-x="-8"
     inkscape:window-y="-8"
     inkscape:window-maximized="1"
     inkscape:current-layer="Layer_1"
     fit-margin-top="0"
     fit-margin-left="0"
     fit-margin-right="0"
     fit-margin-bottom="0"
     showguides="false"
     inkscape:guide-bbox="true"
     showborder="true" /><path
     style="fill:#fec80d"
     d="m 281.5,373.8526565385341 -57.5,-1.4693082983996 -46.5,-1.3273218258776 -46.9665690714875,-3.0395760677646 -46.96656907148743,-3.0395760677646 -16.34641391882799,-6.1417224370222 -16.34641391882799,-6.1417224370224 -2.93701700968451,-5.8181980075042 -2.93701700968451,-5.818198007504 -5e-14,-4.5570333896749 -5e-14,-4.5570333896749 3.11851894847945,-6.2214833051625 3.42450263345144,-6.5626526052842 7.13148105152057,-2.0704510452474 6.82549736654857,-1.7292817451258 -0.39363814968777,-22.9295489547526 -1,-32.8990339815967 -0.60636185031223,-9.9694850268442 -4.5,-1.2943717309259 -4.5,-1.2943717309259 -4.83507173302362,-4.2373049428722 -4.83507173302364,-4.2373049428722 0.71284228932025,-7.2342258598492 0.71284228932023,-7.2342258598492 6.45735407546568,-3.6111580814958 6.45735407546568,-3.6111580814957 7.77277393565917,0.6880476848405 7.77277393565916,0.6880476848406 0.6670483603735,-1.7383001628279 0.66704836037354,-1.7383001628279 -8.10906211530968,-29.4210764146414 -8.10906211530963,-29.4210764146413 0.69665712922149,-8.3632769944469 0.6966571292215,-8.3632769944468 -3.86254194170682,-1.0156835947831 -8.51709789466409,-2.1635303679871 -4.65455595295727,-1.1478467732041 -4.48833632748279,-5.5394036943671 -4.48833632748277,-5.5394036943672 -0.68451559433534,-8.2175194687604 -0.68451559433535,-8.2175194687604 2.60731483806218,-8.54804816230322 2.60731483806219,-8.54804816230319 7.85595652129938,-3.16674057432203 7.85595652129937,-3.16674057432209 9.86413651541379,4.99020784128872 9.86413651541383,4.99020784128868 4.29033507653581,7.03933580390662 4.29033507653581,7.0393358039066 -1.53442036010523,11.7002138669667 -1.5344203601052,11.7002138669668 2.3794620553457,3.0866362846407 12.74408528356942,15.7862782825623 10.36462322822375,12.6996419979214 10,7.4695627515117 10,7.4695627515118 9.9562341307961,2.5266212111531 9.956234130796,2.5266212111532 6.7632853267581,-3.6958259605864 6.7632853267582,-3.6958259605863 9.0417178580189,-19.5 9.0417178580189,-19.5 2.5333620287639,-24.3061798407986 2.5333620287639,-24.30617984079872 -3.6787237097762,-8.19382015920132 -3.6787237097759,-8.19382015920138 -1.0015826868231,-8.68063595261469 -1.0015826868233,-8.68063595261475 2.8857070522622,-4.69428603461802 2.8857070522623,-4.69428603461807 7.3054010225708,-3.37507801276718 7.3054010225708,-3.37507801276723 6.6945989774292,0.004964153284 6.6945989774292,0.004964153284 5.7186574107088,4.64180096217347 5.7186574107089,4.64180096217342 2.5714655978447,6.72944786129637 2.5714655978447,6.72944786129636 -2.1653908691022,8.63368221942567 -2.1653908691022,8.63368221942575 -6.8680424066738,3.74010480382015 -6.8680424066737,3.74010480382015 -0.00668973278,11.59707544377312 -0.00668973278,11.59707544377314 5.7812142057215,16.9029245562269 5.7812142057215,16.9029245562268 10.4687857942785,14.8094798386681 10.4687857942785,14.8094798386681 6.9766669237992,-0.6423668605123 6.9766669237994,-0.6423668605123 8.0233330762008,-7.3911236673805 15.8022794085102,-14.6671129781558 7.7789463323097,-7.2759893107753 9.9393978879859,-25.3989964572327 9.9393978879858,-25.3989964572326 -6.9683442202954,-9.45288014779374 -6.9683442202956,-9.45288014779364 0,-8.51233638890999 0,-8.51233638891 5.0025387836584,-5.7745045676844 5.0025387836583,-5.77450456768441 8.7474612163416,-2.13458151301 8.7474612163416,-2.13458151301 8.5,1.52193198977471 9.25,1.52329907463076 0.75,0.001367084856 0,13.88059935296286 0,13.88059935296292 -8.5,7.29687805161689 -8.5,7.29687805161694 0.011388355333,17.07252259542021 0.011388355333,17.0725225954202 6.4188695347041,21.3469245567066 6.7386116446674,21.570251535255 9.3197421099633,5.7617203872006 10.2024129763925,6.2093550611071 1.2024129763925,0.6709616524549 16.5180096969955,-8.2796065963621 16.518009696995,-8.2796065963621 13.669052136296,-19.5 15.0433165363113,-21.5954413396471 1.3742644000151,-2.0954413396471 -4.4119724426451,-9.5058636678799 -4.411972442645,-9.50586366787988 -1.1488939069215,-5.53419231038701 -1.1488939069216,-5.5341923103871 3.2945088718092,-6.68091637432093 3.2945088718093,-6.68091637432097 8.7963984541987,-5.0337917693131 8.7963984541988,-5.0337917693131 7.9257023651476,0.70158494357554 7.9257023651475,0.70158494357548 5.5305174487122,6.75993962379357 5.5305174487121,6.75993962379357 0,6.96442312115227 0,6.96442312115227 -4.25,5.65327890666917 -4.25,5.65327890666921 -6.5,4.666671465077 -6.7076170264952,4.8119292261834 -2.7940627485047,16.1043074012805 -2.5864457220095,15.9590496401742 3.6092350569932,14.5 3.6092350569933,14.5 3.6848276915114,4.294305822603 3.6848276915115,4.2943058226031 15.0122342273987,-5.5672077013299 15.0122342273988,-5.5672077013296 17.5625032272985,-22.2270981212733 18.1519540371079,-23.2427603137988 1.6837101520567,-8.8830955281431 1.0942593422473,-7.8674333356175 3.4898433165712,-5.7449017607275 3.4898433165714,-5.7449017607275 6.7517090766748,-1.69799016670873 6.7517090766747,-1.69799016670875 7.732424115425,3.76764098884895 7.7324241154255,3.767640988849 5.0968571811868,8.31126610077403 5.0968571811871,8.311266100774 -0.7076433249136,6.7470803659564 -0.7076433249133,6.7470803659563 -2.3366723368391,4.6477549105975 -2.3366723368397,4.6477549105974 -6.0349656348593,0.6022450894025 -12.0340344339789,1.2003239095171 -5.9990687991198,0.5980788201146 -9.9608590063017,19.7713873136249 -9.9608590063013,19.7713873136248 -6.4223783001698,25.6305338662606 -6.4223783001697,25.6305338662606 3.7489534340128,0 3.7489534340128,0 5.1938786334495,2.158478753697 5.1938786334495,2.1584787536969 2.0392853760479,3.9973295640485 2.0392853760482,3.9973295640486 -0.6781210106884,6.5941916822545 -0.6781210106888,6.5941916822545 -2.5304221983948,3.7106507262001 -2.5304221983949,3.7106507262002 -5.3589127277533,1.5578781935831 -8.412077571643,2.1685111623614 -3.4850789858744,1.3094847307309 -1.9475082223217,10.6208381114386 -4.9641217859393,25.9020248687771 -3.0524917776784,16.6208381114388 3.3867965053308,1.2389517076284 2.9907605774067,0.5981521154814 3.055504414395,6.0529202374836 3.055504414395,6.0529202374836 -1.0895159770411,6.2564631453001 -1.0895159770412,6.2564631453 -3.1859395719535,3.7525713265817 -3.1859395719534,3.7525713265818 -11,2.9649795960185 -11,2.9649795960185 -31,3.9843530261378 -31,3.9843530261379 -55,1.5170439470863 z"
     id="path4531"
     inkscape:connector-curvature="0"
     sodipodi:nodetypes="ccccccccccccccccccccccccccccccccccccccccccccccccccccccccccccccccccccccccccccccccccccccccccccccccccccccccccccccccccccccccccccccccccccccccccccccccccccccccccccccccccccccccccccccccccccccccccccccccccccccccc" /></svg>